<?xml version="1.0" encoding="UTF-8" standalone="no"?>
<!-- Created with Inkscape (http://www.inkscape.org/) -->

<svg
   width="210mm"
   height="297mm"
   viewBox="0 0 210 297"
   version="1.1"
   id="svg1"
   xmlns="http://www.w3.org/2000/svg"
   xmlns:svg="http://www.w3.org/2000/svg">
  <defs
     id="defs1" />
  <g
     id="layer1">
    <g
       id="g1"
       transform="translate(6.2923729,7.5508475)">
      <path
         id="path164"
         d="m 146.63099,76.110547 c 9.76821,12.095998 11.58042,29.823383 4.45695,43.572163"
         style="fill:none;stroke:#040606;stroke-width:0.692491;stroke-linecap:butt;stroke-linejoin:miter;stroke-miterlimit:10;stroke-dasharray:none;stroke-opacity:1" />
      <path
         id="path165"
         d="m 42.002056,210.15126 c -2.519415,13.0306 -2.057744,23.7216 -2.057744,24.22705 H 64.28041 v -16.28732 c -7.426541,-2.44473 -14.853082,-5.25852 -22.278354,-7.93973"
         style="fill:#ffffff;fill-opacity:1;fill-rule:nonzero;stroke:none;stroke-width:0.126494" />
      <path
         id="path166"
         d="m 42.002056,210.15126 c -2.519415,13.0306 -2.057744,23.7216 -2.057744,24.22705 H 64.28041 v -16.28732 c -7.426541,-2.44473 -14.853082,-5.25852 -22.278354,-7.93973 z"
         style="fill:none;stroke:#231f20;stroke-width:1.26494;stroke-linecap:butt;stroke-linejoin:miter;stroke-miterlimit:10;stroke-dasharray:none;stroke-opacity:1" />
      <path
         id="path167"
         d="m 132.4941,218.20859 v 16.16972 h 21.47135 c 0,0 1.63443,-10.53707 0.14573,-23.5852 -7.16179,2.74126 -14.44256,5.12967 -21.61715,7.41548"
         style="fill:#ffffff;fill-opacity:1;fill-rule:nonzero;stroke:none;stroke-width:0.126494" />
      <path
         id="path168"
         d="m 132.4941,218.20859 v 16.16972 h 21.47135 c 0,0 1.63443,-10.53707 0.14573,-23.5852 -7.16179,2.74126 -14.44256,5.12967 -21.61715,7.41548 z"
         style="fill:none;stroke:#231f20;stroke-width:1.26494;stroke-linecap:butt;stroke-linejoin:miter;stroke-miterlimit:10;stroke-dasharray:none;stroke-opacity:1" />
      <path
         id="path169"
         d="m 156.33271,205.741 c -4.0362,-20.35476 -17.68074,-44.09761 -59.399563,-44.09761 -36.943432,0 -51.402634,23.61272 -57.022078,43.93373 l 24.369341,7.52684 v 21.27435 h 68.21369 v -21.27435 l 23.83861,-7.36296"
         style="fill:#151516;fill-opacity:1;fill-rule:nonzero;stroke:none;stroke-width:0.126494" />
      <path
         id="path170"
         d="m 156.33271,205.741 c -4.0362,-20.35476 -17.68074,-44.09761 -59.399563,-44.09761 -36.943432,0 -51.402634,23.61272 -57.022078,43.93373 l 24.369341,7.52684 v 21.27435 h 68.21369 v -21.27435 z"
         style="fill:none;stroke:#151516;stroke-width:1.09417;stroke-linecap:round;stroke-linejoin:round;stroke-miterlimit:10;stroke-dasharray:none;stroke-opacity:1" />
      <path
         id="path171"
         d="m 64.28041,213.10396 -24.369341,-7.52684 c -0.428428,1.55139 -0.794212,3.0753 -1.126716,4.57414 8.499531,2.68121 16.997794,5.495 25.496057,7.93973 v -4.98703"
         style="fill:#151516;fill-opacity:1;fill-rule:nonzero;stroke:none;stroke-width:0.126494" />
      <path
         id="path172"
         d="m 64.28041,213.10396 -24.369341,-7.52684 c -0.428428,1.55139 -0.794212,3.0753 -1.126716,4.57414 8.499531,2.68121 16.997794,5.495 25.496057,7.93973 z"
         style="fill:none;stroke:#151516;stroke-width:1.09417;stroke-linecap:round;stroke-linejoin:round;stroke-miterlimit:10;stroke-dasharray:none;stroke-opacity:1" />
      <path
         id="path173"
         d="m 156.33271,205.741 -23.83861,7.36296 v 5.10463 c 8.18237,-2.28581 16.48751,-4.67422 24.65708,-7.41548 -0.21498,-1.65024 -0.47828,-3.33679 -0.81847,-5.05211"
         style="fill:#151516;fill-opacity:1;fill-rule:nonzero;stroke:none;stroke-width:0.126494" />
      <path
         id="path174"
         d="m 156.33271,205.741 -23.83861,7.36296 v 5.10463 c 8.18237,-2.28581 16.48751,-4.67422 24.65708,-7.41548 -0.21498,-1.65024 -0.47828,-3.33679 -0.81847,-5.05211 z"
         style="fill:none;stroke:#151516;stroke-width:1.09417;stroke-linecap:round;stroke-linejoin:round;stroke-miterlimit:10;stroke-dasharray:none;stroke-opacity:1" />
      <path
         id="path175"
         d="m 82.080066,162.78318 c 0,0 0.268628,16.05711 17.58352,16.22851 17.314964,0.17024 18.957074,-14.95236 18.957074,-14.95236 0,0 -19.660474,-4.35022 -36.540594,-1.27615"
         style="fill:#ffffff;fill-opacity:1;fill-rule:nonzero;stroke:none;stroke-width:0.126494" />
      <path
         id="path176"
         d="m 82.080066,162.78318 c 0,0 0.268628,16.05711 17.58352,16.22851 17.314964,0.17024 18.957074,-14.95236 18.957074,-14.95236 0,0 -19.660474,-4.35022 -36.540594,-1.27615 z"
         style="fill:none;stroke:#231f20;stroke-width:1.26494;stroke-linecap:butt;stroke-linejoin:miter;stroke-miterlimit:10;stroke-dasharray:none;stroke-opacity:1" />
      <path
         id="path177"
         d="m 87.980899,159.27371 0.760932,8.89687 c 0,0 1.423404,6.2757 11.215905,6.2757 10.975484,0 12.584314,-6.2757 12.584314,-6.2757 l 0.14718,-11.05005 0.0363,-2.54609 c -7.27566,3.13163 -19.010763,4.30017 -24.74277,4.69927"
         style="fill:#ffffff;fill-opacity:1;fill-rule:nonzero;stroke:none;stroke-width:0.126494" />
      <path
         id="path178"
         d="m 87.980899,159.27371 0.760932,8.89687 c 0,0 1.423404,6.2757 11.215905,6.2757 10.975484,0 12.584314,-6.2757 12.584314,-6.2757 l 0.14718,-11.05005 0.0363,-2.54609 c -7.27566,3.13163 -19.010763,4.30017 -24.74277,4.69927 z"
         style="fill:none;stroke:#231f20;stroke-width:1.26494;stroke-linecap:butt;stroke-linejoin:miter;stroke-miterlimit:10;stroke-dasharray:none;stroke-opacity:1" />
      <path
         id="path179"
         d="m 112.8362,146.08549 -25.756928,2.6499 0.659898,7.71453 0.241801,2.82379 c 5.732008,-0.3991 17.467119,-1.56764 24.742779,-4.69927 l 0.11238,-8.48895"
         style="fill:#151516;fill-opacity:1;fill-rule:nonzero;stroke:none;stroke-width:0.126494" />
      <path
         id="path180"
         d="m 112.8362,146.08549 -25.756928,2.6499 0.659898,7.71453 0.241801,2.82379 c 5.732008,-0.3991 17.467119,-1.56764 24.742779,-4.69927 z"
         style="fill:none;stroke:#151516;stroke-width:1.26494;stroke-linecap:butt;stroke-linejoin:miter;stroke-miterlimit:10;stroke-dasharray:none;stroke-opacity:1" />
      <path
         id="path181"
         d="m 134.51346,78.96689 c 4.08866,8.866808 6.10163,15.627992 6.10163,38.45001 0,17.80495 -14.5308,35.2333 -36.75162,36.64585 -20.88562,1.32619 -42.585897,-6.90003 -49.095476,-35.55862 -6.50958,-28.657313 2.71253,-51.478102 29.29307,-57.846401 26.583116,-6.368299 45.636076,7.868412 50.452396,18.309161"
         style="fill:#ffffff;fill-opacity:1;fill-rule:nonzero;stroke:none;stroke-width:0.126494" />
      <path
         id="path182"
         d="m 134.51346,78.96689 c 4.08866,8.866808 6.10163,15.627992 6.10163,38.45001 0,17.80495 -14.5308,35.2333 -36.75162,36.64585 -20.88562,1.32619 -42.585897,-6.90003 -49.095476,-35.55862 -6.50958,-28.657313 2.71253,-51.478102 29.29307,-57.846401 26.583116,-6.368299 45.636076,7.868412 50.452396,18.309161 z"
         style="fill:none;stroke:#231f20;stroke-width:1.26494;stroke-linecap:butt;stroke-linejoin:miter;stroke-miterlimit:10;stroke-dasharray:none;stroke-opacity:1" />
      <path
         id="path183"
         d="m 49.281522,124.99503 c 0,0 -17.275305,-27.306081 -9.156892,-42.582504 8.117145,-15.277655 23.086632,-15.800627 23.086632,-15.800627 0,0 14.734138,-21.956239 52.384808,-16.51128 37.64811,5.444958 32.98267,27.043352 32.98267,27.043352 0,0 13.87221,20.534941 -1.1369,46.579909 l -4.65775,-2.27209 c 0,0 -13.65476,-13.22701 -13.7136,-29.030154 0,0 -12.20577,-12.222396 -30.094933,-6.111824 -17.88793,6.111824 -20.558263,4.302702 -28.107553,0 0,0 -16.813634,47.396888 -21.586482,38.685218"
         style="fill:#151516;fill-opacity:1;fill-rule:nonzero;stroke:none;stroke-width:0.126494" />
      <path
         id="path184"
         d="m 58.517697,70.233939 c -7.732182,-1.760357 -15.954204,3.269231 -19.542803,10.46827 -3.587294,7.19905 -3.139653,15.952039 -0.460402,23.551451 1.78665,5.07087 4.515784,9.79389 8.002079,13.8451"
         style="fill:none;stroke:#040606;stroke-width:0.692491;stroke-linecap:butt;stroke-linejoin:miter;stroke-miterlimit:10;stroke-dasharray:none;stroke-opacity:1" />
      <path
         id="path185"
         d="m 136.23359,113.52958 c 0,0 15.66389,-5.57256 16.47728,10.14926 0.66117,12.75784 -10.75166,15.4603 -17.74723,10.7948"
         style="fill:#ffffff;fill-opacity:1;fill-rule:nonzero;stroke:#231f20;stroke-width:1.26494;stroke-linecap:butt;stroke-linejoin:miter;stroke-miterlimit:10;stroke-dasharray:none;stroke-opacity:1" />
      <path
         id="path186"
         d="m 136.84364,131.15941 c 0.0446,0 0.0895,-0.0106 0.13304,-0.0284 0.16241,-0.0724 0.23419,-0.25889 0.15987,-0.41788 -0.0362,-0.0763 -3.47092,-7.63445 1.91963,-11.15013 1.89406,-1.23487 3.7625,-1.66776 5.55553,-1.28743 3.09619,0.65809 4.95828,3.55075 4.97872,3.57952 0.0935,0.14753 0.29038,0.19257 0.44123,0.10249 0.15226,-0.0926 0.19938,-0.28656 0.10477,-0.43417 -0.0805,-0.12767 -2.01812,-3.14411 -5.38287,-3.86224 -1.97208,-0.41913 -4.00807,0.0426 -6.05429,1.37751 -5.8471,3.81468 -2.18691,11.8545 -2.14855,11.93586 0.0537,0.11633 0.17147,0.18513 0.29292,0.18513"
         style="fill:#050606;fill-opacity:1;fill-rule:nonzero;stroke:none;stroke-width:0.126494" />
      <path
         id="path187"
         d="m 144.77789,124.99503 c 0.0971,0 0.19431,-0.0426 0.25848,-0.12626 0.10622,-0.14009 0.0768,-0.33656 -0.0663,-0.44165 -0.0537,-0.0387 -5.45708,-3.89856 -9.46769,0.0319 -0.12543,0.12271 -0.12543,0.32167 0,0.44541 0.12652,0.12271 0.3299,0.12271 0.45529,0 3.62058,-3.54572 8.57882,-0.007 8.6287,0.0284 0.0562,0.0411 0.12398,0.0613 0.19178,0.0613"
         style="fill:#050606;fill-opacity:1;fill-rule:nonzero;stroke:none;stroke-width:0.126494" />
      <path
         id="path188"
         d="m 101.10236,132.95853 c -4.921191,0 -5.490313,-4.00241 -5.496693,-4.04493 -0.02175,-0.17272 0.102231,-0.33018 0.278778,-0.35146 0.166398,-0.0248 0.33642,0.099 0.360709,0.27273 0.02175,0.16136 0.588264,3.93608 5.751186,3.44811 0.17655,-0.004 0.33642,0.10995 0.35164,0.28408 0.0181,0.17272 -0.11238,0.32664 -0.28784,0.34401 -0.33642,0.0319 -0.65609,0.0475 -0.95789,0.0475"
         style="fill:#050606;fill-opacity:1;fill-rule:nonzero;stroke:none;stroke-width:0.126494" />
      <path
         id="path189"
         d="m 59.379664,113.52958 c 0,0 -15.663897,-5.57256 -16.478555,10.14926 -0.68038,13.17073 12.126486,16.21476 19.064493,10.89368"
         style="fill:#ffffff;fill-opacity:1;fill-rule:nonzero;stroke:#231f20;stroke-width:1.26494;stroke-linecap:butt;stroke-linejoin:miter;stroke-miterlimit:10;stroke-dasharray:none;stroke-opacity:1" />
      <path
         id="path190"
         d="m 71.625094,106.94235 c 0,0 -3.203638,-2.7863 3.57069,-6.26945 6.774293,-3.483161 9.154318,-2.717464 10.251598,-0.974626 1.00393,1.587676 -0.54864,3.969846 -4.392998,5.850326 -4.616819,2.25705 -7.689985,2.99395 -9.42929,1.39375"
         style="fill:#151516;fill-opacity:1;fill-rule:nonzero;stroke:none;stroke-width:0.126494" />
      <path
         id="path191"
         d="m 84.609704,117.57203 c 0,2.1432 -1.457916,3.87976 -3.256059,3.87976 -1.796837,0 -3.254789,-1.73656 -3.254789,-3.87976 0,-2.14445 1.457952,-3.88105 3.254789,-3.88105 1.798143,0 3.256059,1.7366 3.256059,3.88105"
         style="fill:#050606;fill-opacity:1;fill-rule:nonzero;stroke:none;stroke-width:0.126494" />
      <path
         id="path192"
         d="m 126.95648,106.94235 c 0,0 3.20364,-2.7863 -3.57065,-6.26945 -6.77306,-3.483161 -9.15436,-2.717464 -10.25164,-0.974626 -1.00266,1.587676 0.54864,3.969846 4.393,5.850326 4.61555,2.25705 7.68999,2.99395 9.42929,1.39375"
         style="fill:#151516;fill-opacity:1;fill-rule:nonzero;stroke:none;stroke-width:0.126494" />
      <path
         id="path193"
         d="m 112.54205,117.57203 c 0,2.1432 1.45795,3.87976 3.25606,3.87976 1.79687,0 3.25479,-1.73656 3.25479,-3.87976 0,-2.14445 -1.45792,-3.88105 -3.25479,-3.88105 -1.79811,0 -3.25606,1.7366 -3.25606,3.88105"
         style="fill:#050606;fill-opacity:1;fill-rule:nonzero;stroke:none;stroke-width:0.126494" />
      <path
         id="path194"
         d="m 58.768381,131.15941 c -0.0435,0 -0.08954,-0.0106 -0.133045,-0.0284 -0.16096,-0.0724 -0.232739,-0.25889 -0.158422,-0.41788 0.03625,-0.0763 3.469656,-7.63445 -1.919624,-11.15013 -1.894029,-1.23487 -3.7625,-1.66776 -5.5568,-1.28743 -3.094918,0.65809 -4.958278,3.55075 -4.977455,3.57952 -0.09462,0.14753 -0.291467,0.19257 -0.442494,0.10249 -0.152259,-0.0926 -0.198299,-0.28656 -0.106219,-0.43417 0.08193,-0.12767 2.020658,-3.14411 5.384168,-3.86224 1.970775,-0.41913 4.008037,0.0426 6.055558,1.37751 5.847107,3.81468 2.185641,11.8545 2.148555,11.93586 -0.05365,0.11633 -0.171472,0.18513 -0.294005,0.18513"
         style="fill:#050606;fill-opacity:1;fill-rule:nonzero;stroke:none;stroke-width:0.126494" />
      <path
         id="path195"
         d="m 50.835398,124.99503 c -0.09861,0 -0.194312,-0.0426 -0.258478,-0.12626 -0.106219,-0.14009 -0.07686,-0.33656 0.06634,-0.44165 0.05365,-0.0387 5.457071,-3.89856 9.466377,0.0319 0.125432,0.12271 0.125432,0.32167 0,0.44541 -0.12652,0.12271 -0.329895,0.12271 -0.455291,0 -3.619269,-3.54572 -8.577546,-0.007 -8.627429,0.0284 -0.05764,0.0411 -0.123983,0.0613 -0.191774,0.0613"
         style="fill:#050606;fill-opacity:1;fill-rule:nonzero;stroke:none;stroke-width:0.126494" />
      <path
         id="path196"
         d="m 102.1958,125.34912 c -0.1229,0 -0.23927,-0.0674 -0.29292,-0.18407 -0.0739,-0.15888 -9.4e-4,-0.34543 0.15987,-0.41789 0.0254,-0.0106 2.60254,-1.17982 3.74459,-3.43436 0.89525,-1.77163 0.61774,-4.43281 -0.58442,-5.58259 -0.72257,-0.69062 -1.70095,-0.74942 -2.83662,-0.16882 -0.0363,0.0177 -0.0932,0.0514 -0.16748,0.094 -3.964572,2.25205 -5.751186,1.24111 -6.554352,-0.004 -1.473287,-2.28833 -0.199387,-20.343488 -0.04858,-22.395371 0.01087,-0.17378 0.168935,-0.301455 0.344032,-0.291525 0.177636,0.01419 0.309594,0.16385 0.297993,0.337985 -0.404103,5.516279 -1.199583,20.225921 -0.05003,22.012561 0.947667,1.47131 2.86091,1.40503 5.687267,-0.20251 0.087,-0.05 0.15226,-0.0862 0.19323,-0.10746 1.38374,-0.70689 2.65753,-0.61057 3.58472,0.27663 1.40169,1.34123 1.73419,4.29141 0.71108,6.31198 -1.24439,2.46101 -3.94155,3.67836 -4.05538,3.72968 -0.0435,0.0177 -0.0881,0.0284 -0.13304,0.0284"
         style="fill:#050606;fill-opacity:1;fill-rule:nonzero;stroke:none;stroke-width:0.126494" />
      <path
         id="path197"
         d="m 53.060663,133.12869 c -9.79e-4,0 -9.79e-4,0 -9.79e-4,9.2e-4 0,-9.2e-4 0,-9.2e-4 9.79e-4,-9.2e-4"
         style="fill:#050606;fill-opacity:1;fill-rule:nonzero;stroke:none;stroke-width:0.126494" />
      <path
         id="path198"
         d="m 144.04378,133.12993 c -9.4e-4,-9.2e-4 -9.4e-4,-9.2e-4 -9.4e-4,-9.2e-4 0,0 0,0 9.4e-4,9.2e-4"
         style="fill:#050606;fill-opacity:1;fill-rule:nonzero;stroke:none;stroke-width:0.126494" />
      <path
         id="path199"
         d="m 62.140809,69.080394 c -2.294326,-0.595534 -4.198614,-2.360893 -5.066962,-4.511618 -0.44891,-1.110987 0.699558,-2.275811 1.810903,-1.782878 1.443887,0.641852 2.611496,1.913001 2.97728,3.428116 -0.109844,-1.416273 -0.218601,-2.832546 -0.328807,-4.248855 -0.06018,-0.779457 -0.09716,-1.638995 0.390073,-2.25705 0.630497,-0.800736 1.965663,-0.814497 2.779053,-0.192577 0.812084,0.621814 1.148431,1.700315 1.107503,2.708737 -0.03952,1.009663 -0.402834,1.976803 -0.760933,2.923905"
         style="fill:#151516;fill-opacity:1;fill-rule:nonzero;stroke:none;stroke-width:0.126494" />
      <path
         id="path200"
         d="m 66.936677,84.849739 c 2.175382,4.434066 7.27178,6.958843 12.28121,7.372972 5.010734,0.414129 9.986884,-0.953379 14.74824,-2.532296 4.762589,-1.578953 9.504733,-3.396846 14.502673,-3.934855 11.41797,-1.229867 23.2925,5.072122 28.46561,15.10502"
         style="fill:none;stroke:#040606;stroke-width:0.692491;stroke-linecap:butt;stroke-linejoin:miter;stroke-miterlimit:10;stroke-dasharray:none;stroke-opacity:1" />
      <path
         id="path201"
         d="M 132.4941,209.73341 H 64.28041 v -4.98455 h 68.21369 v 4.98455"
         style="fill:#ffffff;fill-opacity:1;fill-rule:nonzero;stroke:none;stroke-width:0.126494" />
      <path
         id="path202"
         d="M 132.4941,209.73341 H 64.28041 v -4.98455 h 68.21369 z"
         style="fill:none;stroke:#231f20;stroke-width:1.12733;stroke-linecap:butt;stroke-linejoin:miter;stroke-miterlimit:10;stroke-dasharray:none;stroke-opacity:1" />
      <path
         id="path203"
         d="M 132.4941,220.6158 H 64.28041 v -4.98454 h 68.21369 v 4.98454"
         style="fill:#ffffff;fill-opacity:1;fill-rule:nonzero;stroke:none;stroke-width:0.126494" />
      <path
         id="path204"
         d="M 132.4941,220.6158 H 64.28041 v -4.98454 h 68.21369 z"
         style="fill:none;stroke:#231f20;stroke-width:1.12733;stroke-linecap:butt;stroke-linejoin:miter;stroke-miterlimit:10;stroke-dasharray:none;stroke-opacity:1" />
    </g>
  </g>
</svg>
