<!-- icon666.com - MILLIONS vector ICONS FREE -->
<svg version="1.1" id="Layer_1" xmlns="http://www.w3.org/2000/svg"
  xmlns:xlink="http://www.w3.org/1999/xlink" x="0px" y="0px" viewBox="0 0 512 512"
  style="enable-background:new 0 0 512 512;" xml:space="preserve"><g><g><g><path d="M332.482,258.653H179.512c-4.462,0-8.079,3.616-8.079,8.079s3.617,8.079,8.079,8.079h152.969 c4.462,0,8.079-3.616,8.079-8.079S336.943,258.653,332.482,258.653z" fill="#000000" style="fill: rgb(102, 151, 224);"></path><path d="M511.999,229.643c0-5.906-1.464-11.791-4.233-17.02c-2.223-4.197-5.197-7.864-8.836-10.899l-26.691-22.262 c2.007-6.464,3.089-13.331,3.089-20.445c0-38.094-30.992-69.088-69.088-69.088c-11.516,0-22.376,2.848-31.934,7.853 L280.099,19.21c-13.964-11.649-34.236-11.649-48.2,0L13.07,201.724c-3.639,3.035-6.612,6.702-8.835,10.899 C1.464,217.851,0,223.736,0,229.643V466.81c0,19.143,15.574,34.717,34.717,34.717h442.565c19.143,0,34.717-15.574,34.717-34.717 L511.999,229.643z M481.619,208.327h-27.054c4.13-4.049,7.763-8.602,10.781-13.573L481.619,208.327z M481.239,224.486 l-75.078,62.619v-59.002c0.027,0,0.053,0.002,0.08,0.002c7.699,0,15.099-1.285,22.021-3.619H481.239z M406.24,106.087 c29.186,0,52.93,23.744,52.93,52.93s-23.744,52.931-52.93,52.931s-52.93-23.745-52.93-52.931 C353.309,129.831,377.054,106.087,406.24,106.087z M390.003,226.159v74.424L272.077,398.94c-9.316,7.77-22.839,7.768-32.154,0 l-117.926-98.357v-125.31c0-4.585,3.729-8.314,8.314-8.314h207.312C340.952,195.897,362.222,219.44,390.003,226.159z M242.25,31.618c7.966-6.646,19.532-6.646,27.5,0l90.745,75.686c-12.369,10.954-20.786,26.259-22.839,43.498H130.311 c-13.493,0-24.472,10.978-24.472,24.472v33.054H30.38L242.25,31.618z M105.839,224.485v62.62l-75.08-62.62H105.839z M18.966,476.577c-1.769-2.841-2.808-6.181-2.808-9.767V233.348L180.17,370.142L18.966,476.577z M34.977,485.369L193.128,380.95 l36.446,30.398c7.656,6.386,17.04,9.579,26.426,9.579c9.385,0,18.769-3.193,26.426-9.579l36.446-30.398l158.151,104.419H34.977z M495.841,466.81c0.001,3.586-1.038,6.926-2.807,9.767L331.829,370.142l164.012-136.794V466.81z" fill="#000000" style="fill: rgb(102, 151, 224);"></path><path d="M332.482,208.327H179.512c-4.462,0-8.079,3.616-8.079,8.079s3.617,8.079,8.079,8.079h152.969 c4.462,0,8.079-3.616,8.079-8.079S336.943,208.327,332.482,208.327z" fill="#000000" style="fill: rgb(102, 151, 224);"></path><path d="M332.482,308.98H179.512c-4.462,0-8.079,3.616-8.079,8.079s3.617,8.079,8.079,8.079h152.969 c4.462,0,8.079-3.616,8.079-8.079C340.561,312.597,336.943,308.98,332.482,308.98z" fill="#000000" style="fill: rgb(102, 151, 224);"></path></g></g></g></svg>