<svg viewBox="0 0 44 58" xmlns="http://www.w3.org/2000/svg">
    <g id="016---Launch-Project" fill="none">
        <path id="Path"
            d="m28 56h13c1.6568542 0 3-1.3431458 3-3v-45.17c-.0002413-.53291225-.2125227-1.04382666-.59-1.42l-5.82-5.82c-.3761733-.37747734-.8870877-.58975868-1.42-.59h-33.17c-1.65685425 0-3 1.34314575-3 3v50c0 1.6568542 1.34314575 3 3 3z"
            fill="#cdd1da"></path>
        <path id="Path"
            d="m30 40h4.38c.4832991-.0000729.8974895.3455066.984.821l1.636 9c.0530861.2917803-.0260779.5920717-.2161084.8197607-.1900305.2276889-.4713215.3592841-.7678916.3592393h-28.032c-.29657013.0000448-.57786113-.1315504-.76789161-.3592393-.19003048-.227689-.26919445-.5279804-.21610839-.8197607l1.636-9c.08651054-.4754934.50070085-.8210729.984-.821z"
            fill="#f33a4d" style="fill: rgb(174, 211, 251);"></path>
        <path id="Path" d="m24 53h5c.5522847 0 1-.4477153 1-1v-28h-16v28c0 .5522847.4477153 1 1 1h5"
            fill="#f1f3f6"></path>
        <path id="Path"
            d="m14 24c0-5.627 5.548-10.367 7.4-11.795.350463-.2729334.841537-.2729334 1.192 0 1.86 1.428 7.408 6.168 7.408 11.795z"
            fill="#f33a4d" style="fill: rgb(174, 211, 251);"></path>
        <path id="Path"
            d="m43.82 7h-3.82c-1.6568542 0-3-1.34314575-3-3v-3.82c.2196188.10025599.4194552.23912533.59.41l5.82 5.82c.1708747.17054481.309744.37038118.41.59z"
            fill="#8a92a0"></path>
        <path id="Path"
            d="m26 32c0 2.209139-1.790861 4-4 4s-4-1.790861-4-4 1.790861-4 4-4c.7119455-.0020963 1.410757.1916336 2.02.56.5944031.3344128 1.0855872.8255969 1.42 1.42.3683664.609243.5620963 1.3080545.56 2.02z"
            fill="#2081e9" style="fill: rgb(102, 151, 224);"></path>
        <path id="Path"
            d="m24 53h4v3c-.0032948 1.1032019-.8967981 1.9967052-2 2h-8c-1.1032019-.0032948-1.9967052-.8967981-2-2v-3z"
            fill="#8a92a0"></path>
        <rect id="Rectangle" fill="#f33a4d" height="13" rx="1" width="4" x="20" y="41"
            style="fill: rgb(174, 211, 251);"></rect>
        <g fill="#79818f">
            <path id="Path"
                d="m31 9h-25c-.55228475 0-1-.44771525-1-1s.44771525-1 1-1h25c.5522847 0 1 .44771525 1 1s-.4477153 1-1 1z"
                fill="#79818f"></path>
            <path id="Path"
                d="m38 14h-9c-.5522847 0-1-.4477153-1-1s.4477153-1 1-1h9c.5522847 0 1 .4477153 1 1s-.4477153 1-1 1z"
                fill="#79818f"></path>
            <path id="Path"
                d="m15 14h-9c-.55228475 0-1-.4477153-1-1s.44771525-1 1-1h9c.5522847 0 1 .4477153 1 1s-.4477153 1-1 1z"
                fill="#79818f"></path>
            <path id="Path"
                d="m38 19h-5c-.5522847 0-1-.4477153-1-1s.4477153-1 1-1h5c.5522847 0 1 .4477153 1 1s-.4477153 1-1 1z"
                fill="#79818f"></path>
            <path id="Path"
                d="m11 19h-5c-.55228475 0-1-.4477153-1-1s.44771525-1 1-1h5c.5522847 0 1 .4477153 1 1s-.4477153 1-1 1z"
                fill="#79818f"></path>
            <path id="Path"
                d="m38 24h-4c-.5522847 0-1-.4477153-1-1s.4477153-1 1-1h4c.5522847 0 1 .4477153 1 1s-.4477153 1-1 1z"
                fill="#79818f"></path>
            <path id="Path"
                d="m10 24h-4c-.55228475 0-1-.4477153-1-1s.44771525-1 1-1h4c.5522847 0 1 .4477153 1 1s-.4477153 1-1 1z"
                fill="#79818f"></path>
            <path id="Path"
                d="m38 29h-4c-.5522847 0-1-.4477153-1-1s.4477153-1 1-1h4c.5522847 0 1 .4477153 1 1s-.4477153 1-1 1z"
                fill="#79818f"></path>
            <path id="Path"
                d="m10 29h-4c-.55228475 0-1-.4477153-1-1s.44771525-1 1-1h4c.5522847 0 1 .4477153 1 1s-.4477153 1-1 1z"
                fill="#79818f"></path>
            <path id="Path"
                d="m38 34h-4c-.5522847 0-1-.4477153-1-1s.4477153-1 1-1h4c.5522847 0 1 .4477153 1 1s-.4477153 1-1 1z"
                fill="#79818f"></path>
            <path id="Path"
                d="m10 34h-4c-.55228475 0-1-.4477153-1-1s.44771525-1 1-1h4c.5522847 0 1 .4477153 1 1s-.4477153 1-1 1z"
                fill="#79818f"></path>
        </g>
        <path id="Path"
            d="m25.44 29.98-2.73 2.73c-.3943361.3867403-1.0256639.3867403-1.42 0-.3899779-.3930079-.3899779-1.0269921 0-1.42l2.73-2.73c.5944031.3344128 1.0855872.8255969 1.42 1.42z"
            fill="#3c99f3"></path>
    </g>
</svg>